<svg width="18" height="18" viewBox="0 0 18 18" fill="none" xmlns="http://www.w3.org/2000/svg">
    <path fill-rule="evenodd" clip-rule="evenodd"
        d="M9 0.75C7.9166 0.75 6.8438 0.963393 5.84286 1.37799C4.84193 1.7926 3.93245 2.40029 3.16637 3.16637C2.40029 3.93245 1.7926 4.84193 1.37799 5.84286C0.963392 6.8438 0.75 7.9166 0.75 9C0.75 10.0834 0.963392 11.1562 1.37799 12.1571C1.7926 13.1581 2.40029 14.0675 3.16637 14.8336C3.93245 15.5997 4.84193 16.2074 5.84286 16.622C6.8438 17.0366 7.9166 17.25 9 17.25C10.0834 17.25 11.1562 17.0366 12.1571 16.622C13.1581 16.2074 14.0675 15.5997 14.8336 14.8336C15.5997 14.0675 16.2074 13.1581 16.622 12.1571C17.0366 11.1562 17.25 10.0834 17.25 9C17.25 7.9166 17.0366 6.8438 16.622 5.84286C16.2074 4.84193 15.5997 3.93245 14.8336 3.16637C14.0675 2.40029 13.1581 1.7926 12.1571 1.37799C11.1562 0.963393 10.0834 0.75 9 0.75ZM6.35831 2.6224C7.19583 2.27549 8.09348 2.09694 9 2.09694C9.90652 2.09694 10.8042 2.27549 11.6417 2.6224C12.4792 2.96931 13.2402 3.47779 13.8812 4.1188C14.5222 4.75981 15.0307 5.5208 15.3776 6.35831C15.7245 7.19583 15.9031 8.09348 15.9031 9C15.9031 9.90652 15.7245 10.8042 15.3776 11.6417C15.0307 12.4792 14.5222 13.2402 13.8812 13.8812C13.2402 14.5222 12.4792 15.0307 11.6417 15.3776C10.8042 15.7245 9.90652 15.9031 9 15.9031C8.09348 15.9031 7.19583 15.7245 6.35831 15.3776C5.5208 15.0307 4.75981 14.5222 4.1188 13.8812C3.47779 13.2402 2.96931 12.4792 2.6224 11.6417C2.27549 10.8042 2.09694 9.90652 2.09694 9C2.09694 8.09348 2.27549 7.19583 2.6224 6.35831C2.96931 5.5208 3.47779 4.75981 4.1188 4.1188C4.75981 3.47779 5.5208 2.96931 6.35831 2.6224ZM13.0063 5.84564C13.0869 5.60364 13.024 5.33683 12.8436 5.15646C12.6632 4.97608 12.3964 4.9131 12.1544 4.99376L7.10338 6.67744C6.90227 6.74447 6.74447 6.90227 6.67744 7.10338L4.99376 12.1544C4.9131 12.3964 4.97608 12.6632 5.15646 12.8436C5.33683 13.024 5.60364 13.0869 5.84564 13.0063L10.8967 11.3226C11.0978 11.2556 11.2556 11.0978 11.3226 10.8967L13.0063 5.84564ZM6.69752 11.3025L7.84877 7.84877L11.3025 6.69752L10.1513 10.1513L6.69752 11.3025Z"
        fill="#000000" />
</svg>
    